<mxfile host="65bd71144e">
    <diagram id="_zhM-YMbcv69A63_4O-v" name="PÃ¡gina-1">
        <mxGraphModel dx="1806" dy="961" grid="0" gridSize="10" guides="1" tooltips="1" connect="1" arrows="1" fold="1" page="1" pageScale="1" pageWidth="827" pageHeight="1169" background="#808080" math="0" shadow="0">
            <root>
                <mxCell id="0"/>
                <mxCell id="1" parent="0"/>
                <mxCell id="4" value="" style="edgeStyle=none;html=1;" edge="1" parent="1" source="2">
                    <mxGeometry relative="1" as="geometry">
                        <mxPoint x="414" y="160" as="targetPoint"/>
                    </mxGeometry>
                </mxCell>
                <mxCell id="2" value="&lt;h2&gt;INICIO&lt;/h2&gt;" style="rounded=1;whiteSpace=wrap;html=1;fillColor=#9933FF;" vertex="1" parent="1">
                    <mxGeometry x="354" y="20" width="120" height="60" as="geometry"/>
                </mxCell>
                <mxCell id="7" value="" style="edgeStyle=none;html=1;" edge="1" parent="1" source="5" target="6">
                    <mxGeometry relative="1" as="geometry"/>
                </mxCell>
                <mxCell id="5" value="&lt;h3&gt;Cuota_fija&lt;/h3&gt;&lt;h3&gt;= 10000&lt;/h3&gt;" style="shape=parallelogram;perimeter=parallelogramPerimeter;whiteSpace=wrap;html=1;fixedSize=1;fillColor=#0000FF;" vertex="1" parent="1">
                    <mxGeometry x="354" y="160" width="120" height="60" as="geometry"/>
                </mxCell>
                <mxCell id="9" value="" style="edgeStyle=none;html=1;" edge="1" parent="1" source="6" target="8">
                    <mxGeometry relative="1" as="geometry"/>
                </mxCell>
                <mxCell id="6" value="&lt;h2&gt;GASTO&lt;/h2&gt;" style="whiteSpace=wrap;html=1;aspect=fixed;fillColor=#66CC00;" vertex="1" parent="1">
                    <mxGeometry x="374" y="270" width="80" height="80" as="geometry"/>
                </mxCell>
                <mxCell id="11" value="" style="edgeStyle=none;html=1;" edge="1" parent="1" source="8" target="10">
                    <mxGeometry relative="1" as="geometry"/>
                </mxCell>
                <mxCell id="13" value="" style="edgeStyle=none;html=1;" edge="1" parent="1" source="8" target="12">
                    <mxGeometry relative="1" as="geometry">
                        <Array as="points">
                            <mxPoint x="183" y="460"/>
                        </Array>
                    </mxGeometry>
                </mxCell>
                <mxCell id="8" value="&lt;h4&gt;Consumo =&amp;lt;&amp;nbsp;&lt;br&gt;50m3&lt;/h4&gt;" style="rhombus;whiteSpace=wrap;html=1;fillColor=#FF33FF;" vertex="1" parent="1">
                    <mxGeometry x="361" y="410" width="106" height="100" as="geometry"/>
                </mxCell>
                <mxCell id="29" value="" style="edgeStyle=none;html=1;" edge="1" parent="1" source="10">
                    <mxGeometry relative="1" as="geometry">
                        <mxPoint x="430" y="880" as="targetPoint"/>
                        <Array as="points">
                            <mxPoint x="600" y="880"/>
                        </Array>
                    </mxGeometry>
                </mxCell>
                <mxCell id="10" value="&lt;h3&gt;El valor a pagar&lt;/h3&gt;&lt;h3&gt;10000&lt;/h3&gt;" style="whiteSpace=wrap;html=1;fillColor=#FF6666;" vertex="1" parent="1">
                    <mxGeometry x="540" y="430" width="120" height="60" as="geometry"/>
                </mxCell>
                <mxCell id="15" value="" style="edgeStyle=none;html=1;" edge="1" parent="1" source="12" target="14">
                    <mxGeometry relative="1" as="geometry"/>
                </mxCell>
                <mxCell id="18" value="" style="edgeStyle=none;html=1;" edge="1" parent="1" source="12" target="17">
                    <mxGeometry relative="1" as="geometry">
                        <Array as="points">
                            <mxPoint x="63" y="550"/>
                        </Array>
                    </mxGeometry>
                </mxCell>
                <mxCell id="12" value="&lt;h4&gt;Consumo =&amp;lt;200m3&lt;/h4&gt;" style="rhombus;whiteSpace=wrap;html=1;fillColor=#FF33FF;" vertex="1" parent="1">
                    <mxGeometry x="130" y="500" width="106" height="100" as="geometry"/>
                </mxCell>
                <mxCell id="35" value="" style="edgeStyle=none;html=1;fontColor=none;" edge="1" parent="1" source="14">
                    <mxGeometry relative="1" as="geometry">
                        <mxPoint x="365" y="881" as="targetPoint"/>
                    </mxGeometry>
                </mxCell>
                <mxCell id="14" value="El m3 se cobra a 2000&lt;br&gt;10000+2000*(gasto_agua-50)" style="whiteSpace=wrap;html=1;fillColor=#FF6666;" vertex="1" parent="1">
                    <mxGeometry x="310" y="520" width="120" height="60" as="geometry"/>
                </mxCell>
                <mxCell id="20" value="" style="edgeStyle=none;html=1;" edge="1" parent="1" source="17" target="19">
                    <mxGeometry relative="1" as="geometry"/>
                </mxCell>
                <mxCell id="27" value="" style="edgeStyle=none;html=1;" edge="1" parent="1" source="17">
                    <mxGeometry relative="1" as="geometry">
                        <mxPoint x="430" y="880" as="targetPoint"/>
                        <Array as="points">
                            <mxPoint x="63" y="880"/>
                        </Array>
                    </mxGeometry>
                </mxCell>
                <mxCell id="17" value="Consumo &lt;br&gt;&amp;gt;200m3" style="rhombus;whiteSpace=wrap;html=1;fillColor=#FF33FF;" vertex="1" parent="1">
                    <mxGeometry x="10" y="640" width="106" height="100" as="geometry"/>
                </mxCell>
                <mxCell id="37" value="" style="edgeStyle=none;html=1;fontColor=none;" edge="1" parent="1" source="19">
                    <mxGeometry relative="1" as="geometry">
                        <mxPoint x="250" y="879" as="targetPoint"/>
                    </mxGeometry>
                </mxCell>
                <mxCell id="19" value="Se cobra el m3 a $3000&lt;br&gt;10000+3000*(gasto_agua-50)" style="whiteSpace=wrap;html=1;fillColor=#FF6666;" vertex="1" parent="1">
                    <mxGeometry x="190" y="660" width="120" height="60" as="geometry"/>
                </mxCell>
                <mxCell id="21" value="FALSE" style="text;html=1;align=center;verticalAlign=middle;resizable=0;points=[];autosize=1;strokeColor=none;fillColor=none;" vertex="1" parent="1">
                    <mxGeometry x="231" y="430" width="60" height="30" as="geometry"/>
                </mxCell>
                <mxCell id="22" value="FALSE" style="text;html=1;align=center;verticalAlign=middle;resizable=0;points=[];autosize=1;strokeColor=none;fillColor=none;" vertex="1" parent="1">
                    <mxGeometry x="70" y="520" width="60" height="30" as="geometry"/>
                </mxCell>
                <mxCell id="23" value="TRUE" style="text;html=1;align=center;verticalAlign=middle;resizable=0;points=[];autosize=1;strokeColor=none;fillColor=none;" vertex="1" parent="1">
                    <mxGeometry x="470" y="430" width="60" height="30" as="geometry"/>
                </mxCell>
                <mxCell id="24" value="TRUE" style="text;html=1;align=center;verticalAlign=middle;resizable=0;points=[];autosize=1;strokeColor=none;fillColor=none;" vertex="1" parent="1">
                    <mxGeometry x="240" y="520" width="60" height="30" as="geometry"/>
                </mxCell>
                <mxCell id="25" value="TRUE" style="text;html=1;align=center;verticalAlign=middle;resizable=0;points=[];autosize=1;strokeColor=none;fillColor=none;" vertex="1" parent="1">
                    <mxGeometry x="116" y="660" width="60" height="30" as="geometry"/>
                </mxCell>
                <mxCell id="30" value="" style="endArrow=classic;html=1;" edge="1" parent="1">
                    <mxGeometry width="50" height="50" relative="1" as="geometry">
                        <mxPoint x="430" y="880" as="sourcePoint"/>
                        <mxPoint x="430" y="920" as="targetPoint"/>
                    </mxGeometry>
                </mxCell>
                <mxCell id="33" value="" style="edgeStyle=none;html=1;" edge="1" parent="1" source="31" target="32">
                    <mxGeometry relative="1" as="geometry"/>
                </mxCell>
                <mxCell id="31" value="&lt;h2&gt;COBRO&lt;/h2&gt;" style="shape=document;whiteSpace=wrap;html=1;boundedLbl=1;fillColor=#66CC00;" vertex="1" parent="1">
                    <mxGeometry x="374" y="920" width="120" height="80" as="geometry"/>
                </mxCell>
                <mxCell id="32" value="&lt;h2&gt;FIN&lt;/h2&gt;" style="rounded=1;whiteSpace=wrap;html=1;fillColor=#9933FF;" vertex="1" parent="1">
                    <mxGeometry x="374" y="1090" width="120" height="60" as="geometry"/>
                </mxCell>
            </root>
        </mxGraphModel>
    </diagram>
</mxfile>